<svg xmlns="http://www.w3.org/2000/svg" width="41" height="41" viewBox="0 0 41 41">
  <metadata><?xpacket begin="﻿" id="W5M0MpCehiHzreSzNTczkc9d"?>
<x:xmpmeta xmlns:x="adobe:ns:meta/" x:xmptk="Adobe XMP Core 5.6-c140 79.160451, 2017/05/06-01:08:21        ">
   <rdf:RDF xmlns:rdf="http://www.w3.org/1999/02/22-rdf-syntax-ns#">
      <rdf:Description rdf:about=""/>
   </rdf:RDF>
</x:xmpmeta>
                                                                                                    
                                                                                                    
                                                                                                    
                                                                                                    
                                                                                                    
                                                                                                    
                                                                                                    
                                                                                                    
                                                                                                    
                                                                                                    
                                                                                                    
                                                                                                    
                                                                                                    
                                                                                                    
                                                                                                    
                                                                                                    
                                                                                                    
                                                                                                    
                                                                                                    
                                                                                                    
                           
<?xpacket end="w"?></metadata>
<defs>
    <style>
      .cls-1 {
        fill: #707480;
        fill-rule: evenodd;
      }
    </style>
  </defs>
  <path id="ico_local_comercial_pesado.svg" class="cls-1" d="M1031,337H992a1.431,1.431,0,0,1-1-1V309.97a0.648,0.648,0,0,1,.3-0.541L1001,304v-7a1.445,1.445,0,0,1,1-1h19a1.431,1.431,0,0,1,1,1v7l9.68,5.429a0.65,0.65,0,0,1,.31.541L1032,335v1A1.431,1.431,0,0,1,1031,337Zm0-27-9-5v31h-1V302h-2v-1h2v-4h-19v4h15v1h-15v34h-1V305l-9,5v25a0.856,0.856,0,0,0,1,1h37a0.855,0.855,0,0,0,1-1V310Zm-3,22h-3a1.4,1.4,0,0,1-1-1v-3a1.427,1.427,0,0,1,1-1h3a1.431,1.431,0,0,1,1,1v3A1.427,1.427,0,0,1,1028,332Zm0-4h-3v3h3v-3Zm0-3h-3a1.4,1.4,0,0,1-1-1v-3a1.427,1.427,0,0,1,1-1h3a1.431,1.431,0,0,1,1,1v3A1.427,1.427,0,0,1,1028,325Zm0-4h-3v3h3v-3Zm0-3h-3a1.4,1.4,0,0,1-1-1v-3a1.427,1.427,0,0,1,1-1h3a1.431,1.431,0,0,1,1,1v3A1.427,1.427,0,0,1,1028,318Zm0-4h-3v3h3v-3Zm-12,10h-9v12h-1V324a1.445,1.445,0,0,1,1-1h9a1.449,1.449,0,0,1,1,1v12h-1V324Zm0-8h-9a1.4,1.4,0,0,1-1-1v-8a1.427,1.427,0,0,1,1-1h9a1.431,1.431,0,0,1,1,1v8A1.427,1.427,0,0,1,1016,316Zm0-9h-9v8h9v-8Zm-18,25h-3a1.408,1.408,0,0,1-1-1v-3a1.436,1.436,0,0,1,1-1h3a1.436,1.436,0,0,1,1,1v3A1.436,1.436,0,0,1,998,332Zm0-4h-3v3h3v-3Zm0-3h-3a1.408,1.408,0,0,1-1-1v-3a1.436,1.436,0,0,1,1-1h3a1.436,1.436,0,0,1,1,1v3A1.436,1.436,0,0,1,998,325Zm0-4h-3v3h3v-3Zm0-3h-3a1.408,1.408,0,0,1-1-1v-3a1.436,1.436,0,0,1,1-1h3a1.436,1.436,0,0,1,1,1v3A1.436,1.436,0,0,1,998,318Zm0-4h-3v3h3v-3Z" transform="translate(-991 -296)"/>
</svg>
