<svg xmlns="http://www.w3.org/2000/svg" width="41" height="40" viewBox="0 0 41 40">
  <metadata><?xpacket begin="﻿" id="W5M0MpCehiHzreSzNTczkc9d"?>
<x:xmpmeta xmlns:x="adobe:ns:meta/" x:xmptk="Adobe XMP Core 5.6-c140 79.160451, 2017/05/06-01:08:21        ">
   <rdf:RDF xmlns:rdf="http://www.w3.org/1999/02/22-rdf-syntax-ns#">
      <rdf:Description rdf:about=""/>
   </rdf:RDF>
</x:xmpmeta>
                                                                                                    
                                                                                                    
                                                                                                    
                                                                                                    
                                                                                                    
                                                                                                    
                                                                                                    
                                                                                                    
                                                                                                    
                                                                                                    
                                                                                                    
                                                                                                    
                                                                                                    
                                                                                                    
                                                                                                    
                                                                                                    
                                                                                                    
                                                                                                    
                                                                                                    
                                                                                                    
                           
<?xpacket end="w"?></metadata>
<defs>
    <style>
      .cls-1 {
        fill: #707480;
        fill-rule: evenodd;
      }
    </style>
  </defs>
  <path id="ico_local_industrial.svg" class="cls-1" d="M1092,337h-39a1.427,1.427,0,0,1-1-1V318a1.427,1.427,0,0,1,1-1h3l1-15v-4a1.668,1.668,0,0,1,1.1-1h2.73a1.806,1.806,0,0,1,1.17,1v4l0.96,15H1066l1-15v-4a1.668,1.668,0,0,1,1.1-1h2.73a1.806,1.806,0,0,1,1.17,1v4l0.96,15H1079v-9a1.427,1.427,0,0,1,1-1h9a1.431,1.431,0,0,1,1,1v9h2a1.431,1.431,0,0,1,1,1v18A1.431,1.431,0,0,1,1092,337Zm-31-39h-3v3h3v-3Zm0,4h-3l-1,15h5Zm10-4h-3v3h3v-3Zm0,4h-3l-1,15h5Zm18,6h-9v9h9v-9Zm3,10h-39v2h30v1h-30v14a0.855,0.855,0,0,0,1,1h37a0.855,0.855,0,0,0,1-1V318Zm-7,2h2v1h-2v-1Zm2,7v3a1.427,1.427,0,0,1-1,1h-3a1.4,1.4,0,0,1-1-1v-3a1.427,1.427,0,0,1,1-1h3A1.431,1.431,0,0,1,1087,327Zm-4,3h3v-3h-3v3Zm-5,1h-3a1.4,1.4,0,0,1-1-1v-3a1.427,1.427,0,0,1,1-1h3a1.431,1.431,0,0,1,1,1v3A1.427,1.427,0,0,1,1078,331Zm0-4h-3v3h3v-3Zm-8,4h-3a1.4,1.4,0,0,1-1-1v-3a1.427,1.427,0,0,1,1-1h3a1.431,1.431,0,0,1,1,1v3A1.427,1.427,0,0,1,1070,331Zm0-4h-3v3h3v-3Zm-8,4h-3a1.4,1.4,0,0,1-1-1v-3a1.427,1.427,0,0,1,1-1h3a1.431,1.431,0,0,1,1,1v3A1.427,1.427,0,0,1,1062,331Zm0-4h-3v3h3v-3Zm21-17h3a1.431,1.431,0,0,1,1,1v3a1.427,1.427,0,0,1-1,1h-3a1.4,1.4,0,0,1-1-1v-3A1.427,1.427,0,0,1,1083,310Zm0,4h3v-3h-3v3Z" transform="translate(-1052 -297)"/>
</svg>
