<svg xmlns="http://www.w3.org/2000/svg" xmlns:xlink="http://www.w3.org/1999/xlink" width="62.219" height="62.219" viewBox="0 0 62.219 62.219">
  <defs>
    <clipPath id="clip-path">
      <rect id="Retângulo_4" data-name="Retângulo 4" width="62.219" height="62.219" fill="none"/>
    </clipPath>
  </defs>
  <g id="Grupo_7" data-name="Grupo 7" transform="translate(-128.515 -652.272)">
    <g id="Grupo_3" data-name="Grupo 3" transform="translate(190.734 652.272) rotate(90)" clip-path="url(#clip-path)">
      <rect id="Retângulo_3" data-name="Retângulo 3" width="10.524" height="10.66" transform="matrix(0.707, -0.707, 0.707, 0.707, 23.055, 53.757)" fill="none" stroke="#767682" stroke-miterlimit="22.93" stroke-width="2"/>
    </g>
    <rect id="Retângulo_5" data-name="Retângulo 5" width="10.524" height="10.66" transform="translate(147.714 664.453) rotate(45.01)" fill="none" stroke="#767682" stroke-miterlimit="22.93" stroke-width="2"/>
    <g id="Grupo_4" data-name="Grupo 4" transform="translate(190.734 652.272) rotate(90)" clip-path="url(#clip-path)">
      <rect id="Retângulo_6" data-name="Retângulo 6" width="10.524" height="10.66" transform="translate(1.471 32.197) rotate(-45)" fill="none" stroke="#767682" stroke-miterlimit="22.93" stroke-width="2"/>
    </g>
    <rect id="Retângulo_8" data-name="Retângulo 8" width="10.524" height="10.66" transform="translate(148.925 687.264) rotate(45)" fill="none" stroke="#767682" stroke-miterlimit="22.93" stroke-width="2"/>
    <rect id="Retângulo_9" data-name="Retângulo 9" width="10.524" height="10.66" transform="translate(159.684 676.447) rotate(45)" fill="none" stroke="#767682" stroke-miterlimit="22.93" stroke-width="2"/>
    <rect id="Retângulo_10" data-name="Retângulo 10" width="10.524" height="10.66" transform="matrix(0.707, 0.707, -0.707, 0.707, 170.527, 665.674)" fill="none" stroke="#767682" stroke-miterlimit="22.93" stroke-width="2"/>
    <g id="Grupo_5" data-name="Grupo 5" transform="translate(190.734 652.272) rotate(90)" clip-path="url(#clip-path)">
      <rect id="Retângulo_11" data-name="Retângulo 11" width="10.524" height="10.66" transform="matrix(0.707, -0.707, 0.707, 0.707, 46.517, 30.208)" fill="none" stroke="#767682" stroke-miterlimit="22.93" stroke-width="2"/>
    </g>
    <rect id="Retângulo_13" data-name="Retângulo 13" width="10.524" height="10.66" transform="matrix(0.707, 0.707, -0.707, 0.707, 171.28, 687.938)" fill="none" stroke="#767682" stroke-miterlimit="22.93" stroke-width="2"/>
    <g id="Grupo_6" data-name="Grupo 6" transform="translate(190.734 652.272) rotate(90)" clip-path="url(#clip-path)">
      <rect id="Retângulo_14" data-name="Retângulo 14" width="10.524" height="10.66" transform="translate(24.93 8.656) rotate(-45)" fill="none" stroke="#767682" stroke-miterlimit="22.93" stroke-width="2"/>
    </g>
  </g>
</svg>
